<?xml version="1.0" encoding="UTF-8" standalone="no"?>
<!-- Generator: Adobe Illustrator 21.0.2, SVG Export Plug-In . SVG Version: 6.00 Build 0)  -->

<svg
   xmlns:dc="http://purl.org/dc/elements/1.1/"
   xmlns:cc="http://creativecommons.org/ns#"
   xmlns:rdf="http://www.w3.org/1999/02/22-rdf-syntax-ns#"
   xmlns:svg="http://www.w3.org/2000/svg"
   xmlns="http://www.w3.org/2000/svg"
   xmlns:sodipodi="http://sodipodi.sourceforge.net/DTD/sodipodi-0.dtd"
   xmlns:inkscape="http://www.inkscape.org/namespaces/inkscape"
   version="1.1"
   id="Layer_1"
   x="0px"
   y="0px"
   viewBox="0 0 74 56"
   style="enable-background:new 0 0 74 56;"
   xml:space="preserve"
   sodipodi:docname="analysis-bain-sem.svg"
   inkscape:version="0.92.3 (2405546, 2018-03-11)"><metadata
   id="metadata209"><rdf:RDF><cc:Work
       rdf:about=""><dc:format>image/svg+xml</dc:format><dc:type
         rdf:resource="http://purl.org/dc/dcmitype/StillImage" /></cc:Work></rdf:RDF></metadata><defs
   id="defs207" /><sodipodi:namedview
   pagecolor="#ffffff"
   bordercolor="#666666"
   borderopacity="1"
   objecttolerance="10"
   gridtolerance="10"
   guidetolerance="10"
   inkscape:pageopacity="0"
   inkscape:pageshadow="2"
   inkscape:window-width="1800"
   inkscape:window-height="1046"
   id="namedview205"
   showgrid="false"
   inkscape:zoom="4.2142857"
   inkscape:cx="-10.457627"
   inkscape:cy="28"
   inkscape:window-x="-9"
   inkscape:window-y="212"
   inkscape:window-maximized="1"
   inkscape:current-layer="Layer_1" />
<style
   type="text/css"
   id="style2">
	.st0{fill:#494949;}
	.st1{fill:#7D7D7D;}
	.st2{enable-background:new    ;}
	.st3{fill:#595959;}
	.st4{fill:#575757;}
	.st5{fill:#5D5D5D;}
	.st6{fill:#5B5B5B;}
	.st7{fill:#525252;}
	.st8{fill:#545454;}
	.st9{fill:none;}
	.st10{fill:#FB8C00;}
	.st11{fill:#C65000;}
	.st12{fill:#9D160C;stroke:#9D160C;stroke-width:1.25;stroke-linejoin:round;stroke-miterlimit:10;}
	.st13{fill:none;stroke:#9D160C;stroke-width:1.25;stroke-linecap:square;stroke-linejoin:round;stroke-miterlimit:10;}
	.st14{fill:none;stroke:#6B767E;stroke-miterlimit:10;}
</style>
<polygon
   class="st0"
   points="53.4,11.3 41.5,6.4 43.5,9.8 19.5,9.7 19.5,12.7 43.4,12.8 41.5,16.2 "
   id="polygon4" />
<polygon
   class="st1"
   points="53,10.7 41.1,5.8 43,9.2 19.1,9.2 19.1,12.2 43,12.2 41.1,15.6 "
   id="polygon6" />
<polygon
   class="st0"
   points="41.5,16.2 41.1,15.6 53,10.7 53.4,11.3 "
   id="polygon8" />
<g
   id="g50">
	<g
   id="g48">
		<g
   class="st2"
   id="g46">
			<g
   id="g12">
				<polygon
   class="st3"
   points="45.8,32.3 45.8,31.5 49.4,32.9 49.4,33.7     "
   id="polygon10" />
			</g>
			<g
   id="g16">
				<polygon
   class="st3"
   points="44.2,31.7 44.2,30.8 45.8,31.5 45.8,32.3     "
   id="polygon14" />
			</g>
			<g
   id="g20">
				<polygon
   class="st4"
   points="43.9,30 43.9,29.1 44.2,30.8 44.2,31.7     "
   id="polygon18" />
			</g>
			<g
   id="g24">
				<polygon
   class="st0"
   points="37.1,37.4 37.1,36.5 43.3,25.3 43.3,26.1     "
   id="polygon22" />
			</g>
			<g
   id="g28">
				<polygon
   class="st1"
   points="43.3,26.1 43.9,30 44.2,31.7 45.8,32.3 49.4,33.7 37.1,37.4     "
   id="polygon26" />
			</g>
			<g
   id="g32">
				<polygon
   class="st4"
   points="43.3,26.1 43.3,25.3 43.9,29.1 43.9,30     "
   id="polygon30" />
			</g>
			<g
   id="g36">
				<polygon
   class="st0"
   points="43.9,30 43.9,29.1 62.5,14.2 62.5,15     "
   id="polygon34" />
			</g>
			<g
   id="g40">
				<polygon
   class="st5"
   points="62.5,15 62.5,14.2 64.4,16.5 64.4,17.4     "
   id="polygon38" />
			</g>
			<g
   id="g44">
				<polygon
   class="st1"
   points="62.5,15 64.4,17.4 45.8,32.3 44.2,31.7 43.9,30     "
   id="polygon42" />
			</g>
		</g>
	</g>
</g>
<g
   id="g88">
	<g
   id="g86">
		<g
   class="st2"
   id="g84">
			<g
   id="g54">
				<polygon
   class="st6"
   points="62,27.4 62,26.6 63.6,27.4 63.6,28.3     "
   id="polygon52" />
			</g>
			<g
   id="g58">
				<polygon
   class="st0"
   points="63.6,28.3 63.6,27.4 65.1,26.6 65.1,27.4     "
   id="polygon56" />
			</g>
			<g
   id="g62">
				<polygon
   class="st6"
   points="58.7,25.5 58.7,24.6 62,26.6 62,27.4     "
   id="polygon60" />
			</g>
			<g
   id="g66">
				<polygon
   class="st0"
   points="65.1,27.4 65.1,26.6 68.4,24.6 68.4,25.4     "
   id="polygon64" />
			</g>
			<g
   id="g70">
				<polygon
   class="st1"
   points="68.4,25.4 63.6,37.4 58.7,25.5 62,27.4 63.6,28.3 65.1,27.4     "
   id="polygon68" />
			</g>
			<g
   id="g74">
				<polygon
   class="st7"
   points="62,16.2 62,15.3 65,15.3 65,16.2     "
   id="polygon72" />
			</g>
			<g
   id="g78">
				<polygon
   class="st8"
   points="65,16.2 65,15.3 65.1,26.6 65.1,27.4     "
   id="polygon76" />
			</g>
			<g
   id="g82">
				<polygon
   class="st1"
   points="65,16.2 65.1,27.4 63.6,28.3 62,27.4 62,16.2     "
   id="polygon80" />
			</g>
		</g>
	</g>
</g>
<line
   class="st9"
   x1="0.8"
   y1="4.3"
   x2="0.3"
   y2="4.3"
   id="line90" />
<circle
   class="st10"
   cx="63.5"
   cy="10.9"
   r="10.5"
   id="circle92" />
<path
   class="st11"
   d="M70.2,5.8c0.2,0.7,0.3,1.5,0.3,2.3c0,4.6-3.8,8.4-8.4,8.4c-2.7,0-5.1-1.3-6.7-3.3c1,3.5,4.2,6.1,8.1,6.1  c4.6,0,8.4-3.8,8.4-8.4C71.9,9,71.2,7.2,70.2,5.8z"
   id="path94" />
<g
   id="g100">
	<path
   class="st12"
   d="M2.6,3"
   id="path96" />
	<path
   class="st12"
   d="M2.6,3"
   id="path98" />
</g>
<rect
   x="28.2"
   y="36.6"
   class="st11"
   width="17.9"
   height="17.8"
   id="rect102"
   style="fill:#ffda33;fill-opacity:1" />
<g
   id="g108">
	<path
   class="st12"
   d="M29.2,37.6"
   id="path104" />
	<path
   class="st12"
   d="M29.2,37.6"
   id="path106" />
</g>
<line
   class="st13"
   x1="29.2"
   y1="37.6"
   x2="29.2"
   y2="53.6"
   id="line110"
   style="stroke:#d4a837;stroke-opacity:1" />
<line
   class="st13"
   x1="29.2"
   y1="37.6"
   x2="45.2"
   y2="37.6"
   id="line112"
   style="stroke:#d4a837;stroke-opacity:1" />
<rect
   x="54.5"
   y="36.6"
   class="st11"
   width="17.9"
   height="17.8"
   id="rect114"
   style="fill:#ffda33;fill-opacity:1" />
<g
   id="g120">
	<path
   class="st12"
   d="M55.5,37.6"
   id="path116" />
	<path
   class="st12"
   d="M55.5,37.7"
   id="path118" />
</g>
<line
   class="st13"
   x1="55.5"
   y1="37.6"
   x2="55.5"
   y2="53.6"
   id="line122"
   style="stroke:#d4a837;stroke-opacity:1" />
<line
   class="st13"
   x1="55.5"
   y1="37.6"
   x2="71.5"
   y2="37.6"
   id="line124"
   style="stroke:#d4a837;stroke-opacity:1" />
<g
   id="g136">
	<path
   class="st14"
   d="M43.3,31"
   id="path126" />
	<path
   class="st14"
   d="M58.1,19.1"
   id="path128" />
	<g
   id="g134">
		<path
   class="st14"
   d="M39.2,34.4"
   id="path130" />
		<path
   class="st14"
   d="M43.4,30.6"
   id="path132" />
	</g>
</g>
<g
   id="g174">
	<g
   id="g172">
		<g
   class="st2"
   id="g170">
			<g
   id="g140">
				<polygon
   class="st6"
   points="9.1,27.4 9.1,26.6 10.6,27.4 10.6,28.3     "
   id="polygon138" />
			</g>
			<g
   id="g144">
				<polygon
   class="st0"
   points="10.6,28.3 10.6,27.4 12.1,26.6 12.1,27.4     "
   id="polygon142" />
			</g>
			<g
   id="g148">
				<polygon
   class="st6"
   points="5.8,25.5 5.8,24.6 9.1,26.6 9.1,27.4     "
   id="polygon146" />
			</g>
			<g
   id="g152">
				<polygon
   class="st0"
   points="12.1,27.4 12.1,26.6 15.5,24.6 15.5,25.4     "
   id="polygon150" />
			</g>
			<g
   id="g156">
				<polygon
   class="st1"
   points="15.5,25.4 10.6,37.4 5.8,25.5 9.1,27.4 10.6,28.3 12.1,27.4     "
   id="polygon154" />
			</g>
			<g
   id="g160">
				<polygon
   class="st7"
   points="9.1,16.2 9.1,15.3 12.1,15.3 12.1,16.2     "
   id="polygon158" />
			</g>
			<g
   id="g164">
				<polygon
   class="st8"
   points="12.1,16.2 12.1,15.3 12.1,26.6 12.1,27.4     "
   id="polygon162" />
			</g>
			<g
   id="g168">
				<polygon
   class="st1"
   points="12.1,16.2 12.1,27.4 10.6,28.3 9.1,27.4 9.1,16.2     "
   id="polygon166" />
			</g>
		</g>
	</g>
</g>
<circle
   class="st10"
   cx="10.6"
   cy="10.9"
   r="10.5"
   id="circle176" />
<path
   class="st11"
   d="M17.2,5.8c0.2,0.7,0.3,1.5,0.3,2.3c0,4.6-3.8,8.4-8.4,8.4c-2.7,0-5.1-1.3-6.7-3.3c1,3.5,4.2,6.1,8.1,6.1  c4.6,0,8.4-3.8,8.4-8.4C19,9,18.2,7.2,17.2,5.8z"
   id="path178" />
<rect
   x="1.6"
   y="36.6"
   class="st11"
   width="17.9"
   height="17.8"
   id="rect180"
   style="fill:#ffda33;fill-opacity:1" />
<g
   id="g186">
	<path
   class="st12"
   d="M2.6,37.6"
   id="path182" />
	<path
   class="st12"
   d="M2.6,37.7"
   id="path184" />
</g>
<line
   class="st13"
   x1="2.6"
   y1="37.6"
   x2="2.6"
   y2="53.6"
   id="line188"
   style="stroke:#d4a837;stroke-opacity:1" />
<line
   class="st13"
   x1="2.6"
   y1="37.6"
   x2="18.6"
   y2="37.6"
   id="line190"
   style="stroke:#d4a837;stroke-opacity:1" />
<g
   id="g202">
	<path
   class="st14"
   d="M-9.6,31"
   id="path192" />
	<path
   class="st14"
   d="M5.1,19.1"
   id="path194" />
	<g
   id="g200">
		<path
   class="st14"
   d="M-13.7,34.4"
   id="path196" />
		<path
   class="st14"
   d="M-9.5,30.6"
   id="path198" />
	</g>
</g>
</svg>